<?xml version="1.0" encoding="iso-8859-1"?>
<!-- Uploaded to: SVG Repo, www.svgrepo.com, Generator: SVG Repo Mixer Tools -->
<svg version="1.1" id="Layer_1" xmlns="http://www.w3.org/2000/svg" xmlns:xlink="http://www.w3.org/1999/xlink" 
	 viewBox="0 0 512 512" xml:space="preserve">
<rect x="118.073" y="59.58" style="fill:#FFEB99;" width="275.851" height="275.851"/>
<rect x="81.178" y="335.431" style="fill:#BC6F45;" width="349.631" height="38.639"/>
<path d="M346.522,200.009c0.015,0,0.029,0,0.045,0c5.75,0,10.424-4.65,10.448-10.405l0.001-0.244
	c0.024-5.771-4.635-10.469-10.405-10.493c-0.015,0-0.029,0-0.045,0c-5.75,0-10.424,4.65-10.448,10.405l-0.001,0.244
	C336.093,195.288,340.751,199.985,346.522,200.009z"/>
<path d="M430.817,324.983h-26.443V59.581c0-5.77-4.678-10.449-10.449-10.449H266.448V10.449C266.448,4.678,261.77,0,256,0
	s-10.449,4.678-10.449,10.449v38.683H118.074c-5.771,0-10.449,4.679-10.449,10.449v265.402H81.183
	c-5.771,0-10.449,4.678-10.449,10.449v38.639c0,5.77,4.678,10.449,10.449,10.449h68.184l-36.845,113.81
	c-1.777,5.491,1.232,11.382,6.723,13.159c1.07,0.347,2.155,0.511,3.22,0.511c4.408,0,8.507-2.813,9.939-7.234l23.1-71.356h90.047
	v68.137c0,5.77,4.678,10.449,10.449,10.449c5.771,0,10.449-4.679,10.449-10.449v-68.137h90.047l23.102,71.356
	c1.431,4.421,5.53,7.234,9.939,7.234c1.067,0,2.151-0.165,3.22-0.511c5.49-1.777,8.5-7.669,6.723-13.159l-36.848-113.81h68.185
	c5.771,0,10.449-4.679,10.449-10.449v-38.639C441.266,329.661,436.588,324.983,430.817,324.983z M128.523,70.03h254.954v254.954
	h-26.462V223.364c0-5.77-4.678-10.449-10.449-10.449c-5.771,0-10.449,4.679-10.449,10.449v101.619H128.523V70.03z M162.27,412.513
	l9.062-27.993h74.219v27.993H162.27z M349.729,412.513h-83.28V384.52h74.218L349.729,412.513z M420.368,363.622H91.632v-17.741
	h328.737V363.622z"/>
</svg>