<?xml version="1.0" encoding="iso-8859-1"?>
<!-- Uploaded to: SVG Repo, www.svgrepo.com, Generator: SVG Repo Mixer Tools -->
<svg height="800px" width="800px" version="1.1" id="Layer_1" xmlns="http://www.w3.org/2000/svg" xmlns:xlink="http://www.w3.org/1999/xlink" 
	 viewBox="0 0 503.82 503.82" xml:space="preserve">
<g transform="translate(1 1)">
	<path style="fill:#ECF4F7;" d="M498.2,293.577v51.2c0,19.627-15.36,34.133-34.133,34.133H293.4h-85.333H37.4
		c-18.773,0-34.133-14.507-34.133-34.133v-51.2H75.8h58.88H498.2z M208.067,464.243V378.91H293.4v85.333h34.133
		c17.067,0,34.133,17.067,34.133,34.133H139.8c0-17.067,17.067-34.133,34.133-34.133H208.067z"/>
	<path style="fill:#FFE079;" d="M148.333,199.71l-12.8,93.013v0.853h-58.88v-0.853L63,199.71c0,0,8.533-17.067,42.667-17.067
		S148.333,199.71,148.333,199.71"/>
	<g>
		<path style="fill:#7EE1E6;" d="M250.733,327.71c5.12,0,8.533,4.267,8.533,8.533c0,4.267-3.413,8.533-8.533,8.533
			c-5.12,0-8.533-4.267-8.533-8.533C242.2,331.977,245.613,327.71,250.733,327.71"/>
		<path style="fill:#7EE1E6;" d="M472.6,3.443l25.6,68.267l0,0c-7.68,10.24-20.48,17.067-34.133,17.067
			c-23.893,0-42.667-18.773-42.667-42.667c0,23.893-18.773,42.667-42.667,42.667c-23.893,0-42.667-18.773-42.667-42.667
			c0,23.893-18.773,42.667-42.667,42.667c-23.893,0-42.667-18.773-42.667-42.667c0,23.893-18.773,42.667-42.667,42.667
			S165.4,70.003,165.4,46.11c0,23.893-18.773,42.667-42.667,42.667S80.067,70.003,80.067,46.11
			c0,23.893-18.773,42.667-42.667,42.667c-13.653,0-26.453-6.827-34.133-17.067l0,0l25.6-68.267H472.6z"/>
	</g>
	<path style="fill:#AAB1BA;" d="M498.2,71.71v221.867H135.533v-0.853l12.8-93.013c0,0-8.533-17.067-42.667-17.067
		S63,199.71,63,199.71l12.8,93.013v0.853H3.267V71.71l0,0c7.68,10.24,20.48,17.067,34.133,17.067
		c23.893,0,42.667-18.773,42.667-42.667c0,23.893,18.773,42.667,42.667,42.667S165.4,70.003,165.4,46.11
		c0,23.893,18.773,42.667,42.667,42.667s42.667-18.773,42.667-42.667c0,23.893,18.773,42.667,42.667,42.667
		c23.893,0,42.667-18.773,42.667-42.667c0,23.893,18.773,42.667,42.667,42.667c23.893,0,42.667-18.773,42.667-42.667
		c0,23.893,18.773,42.667,42.667,42.667C477.72,88.777,490.52,81.95,498.2,71.71L498.2,71.71z"/>
	<path style="fill:#FFE079;" d="M447,259.443c0-9.387-7.68-17.067-17.067-17.067s-17.067,7.68-17.067,17.067H447z M378.733,259.443
		c0-9.387-7.68-17.067-17.067-17.067s-17.067,7.68-17.067,17.067H378.733z M310.467,259.443c0-9.387-7.68-17.067-17.067-17.067
		s-17.067,7.68-17.067,17.067H310.467z M242.2,259.443c0-9.387-7.68-17.067-17.067-17.067s-17.067,7.68-17.067,17.067H242.2z
		 M412.867,208.243c0-9.387-7.68-17.067-17.067-17.067s-17.067,7.68-17.067,17.067H412.867z M344.6,208.243
		c0-9.387-7.68-17.067-17.067-17.067s-17.067,7.68-17.067,17.067H344.6z M276.333,208.243c0-9.387-7.68-17.067-17.067-17.067
		c-9.387,0-17.067,7.68-17.067,17.067H276.333z"/>
</g>
<path style="fill:#51565F;" d="M362.667,503.643H140.8c-2.56,0-4.267-1.707-4.267-4.267c0-19.627,18.773-38.4,38.4-38.4H204.8
	v-46.933c0-2.56,1.707-4.267,4.267-4.267s4.267,1.707,4.267,4.267v46.933h46.933c2.56,0,4.267,1.707,4.267,4.267
	c0,2.56-1.707,4.267-4.267,4.267h-85.333c-13.653,0-27.307,11.947-29.867,25.6h212.48c-2.56-13.653-16.213-25.6-29.867-25.6h-34.133
	c-2.56,0-4.267-1.707-4.267-4.267v-51.2c0-2.56,1.707-4.267,4.267-4.267s4.267,1.707,4.267,4.267v46.933h29.867
	c19.627,0,38.4,18.773,38.4,38.4C366.933,501.937,365.227,503.643,362.667,503.643z M465.067,384.177H38.4
	c-21.333,0-38.4-17.067-38.4-38.4v-51.2c0-2.56,1.707-4.267,4.267-4.267h460.8c2.56,0,4.267,1.707,4.267,4.267
	c0,2.56-1.707,4.267-4.267,4.267H8.533v46.933c0,17.067,12.8,29.867,29.867,29.867h426.667c17.067,0,29.867-12.8,29.867-29.867
	v-230.4c0-2.56,1.707-4.267,4.267-4.267c2.56,0,4.267,1.707,4.267,4.267v230.4C503.467,367.11,486.4,384.177,465.067,384.177z
	 M251.733,350.043c-6.827,0-12.8-5.973-12.8-12.8c0-6.827,5.973-12.8,12.8-12.8c6.827,0,12.8,5.973,12.8,12.8
	C264.533,344.07,258.56,350.043,251.733,350.043z M251.733,332.977c-2.56,0-4.267,1.707-4.267,4.267c0,2.56,1.707,4.267,4.267,4.267
	c2.56,0,4.267-1.707,4.267-4.267C256,334.684,254.293,332.977,251.733,332.977z M140.8,264.71L140.8,264.71
	c-2.56,0-4.267-2.56-4.267-5.12l8.533-58.027c-2.56-3.413-11.947-13.653-38.4-13.653s-35.84,10.24-38.4,13.653L76.8,259.59
	c0,2.56-1.707,4.267-3.413,5.12c-2.56,0-4.267-1.707-5.12-3.413l-8.533-59.733c0-0.853,0-1.707,0-2.56
	c0-0.853,10.24-19.627,46.08-19.627s46.08,18.773,46.08,19.627c0,0.853,0.853,1.707,0,2.56l-8.533,59.733
	C145.067,263.003,142.507,264.71,140.8,264.71z M448,264.71c-2.56,0-4.267-1.707-4.267-4.267c0-6.827-5.973-12.8-12.8-12.8
	s-12.8,5.973-12.8,12.8c0,2.56-1.707,4.267-4.267,4.267s-4.267-1.707-4.267-4.267c0-11.947,9.387-21.333,21.333-21.333
	c11.947,0,21.333,9.387,21.333,21.333C452.267,263.003,450.56,264.71,448,264.71z M379.733,264.71c-2.56,0-4.267-1.707-4.267-4.267
	c0-6.827-5.973-12.8-12.8-12.8s-12.8,5.973-12.8,12.8c0,2.56-1.707,4.267-4.267,4.267s-4.267-1.707-4.267-4.267
	c0-11.947,9.387-21.333,21.333-21.333S384,248.497,384,260.443C384,263.003,382.293,264.71,379.733,264.71z M311.467,264.71
	c-2.56,0-4.267-1.707-4.267-4.267c0-6.827-5.973-12.8-12.8-12.8s-12.8,5.973-12.8,12.8c0,2.56-1.707,4.267-4.267,4.267
	s-4.267-1.707-4.267-4.267c0-11.947,9.387-21.333,21.333-21.333c11.947,0,21.333,9.387,21.333,21.333
	C315.733,263.003,314.027,264.71,311.467,264.71z M243.2,264.71c-2.56,0-4.267-1.707-4.267-4.267c0-6.827-5.973-12.8-12.8-12.8
	s-12.8,5.973-12.8,12.8c0,2.56-1.707,4.267-4.267,4.267s-4.267-1.707-4.267-4.267c0-11.947,9.387-21.333,21.333-21.333
	s21.333,9.387,21.333,21.333C247.467,263.003,245.76,264.71,243.2,264.71z M106.667,264.71c-2.56,0-4.267-1.707-4.267-4.267V226.31
	c0-2.56,1.707-4.267,4.267-4.267s4.267,1.707,4.267,4.267v34.133C110.933,263.003,109.227,264.71,106.667,264.71z M4.267,264.71
	c-2.56,0-4.267-1.707-4.267-4.267V115.377c0-2.56,1.707-4.267,4.267-4.267s4.267,1.707,4.267,4.267v145.067
	C8.533,263.003,6.827,264.71,4.267,264.71z M413.867,213.51c-2.56,0-4.267-1.707-4.267-4.267c0-6.827-5.973-12.8-12.8-12.8
	s-12.8,5.973-12.8,12.8c0,2.56-1.707,4.267-4.267,4.267c-2.56,0-4.267-1.707-4.267-4.267c0-11.947,9.387-21.333,21.333-21.333
	s21.333,9.387,21.333,21.333C418.133,211.803,416.427,213.51,413.867,213.51z M345.6,213.51c-2.56,0-4.267-1.707-4.267-4.267
	c0-6.827-5.973-12.8-12.8-12.8s-12.8,5.973-12.8,12.8c0,2.56-1.707,4.267-4.267,4.267s-4.267-1.707-4.267-4.267
	c0-11.947,9.387-21.333,21.333-21.333s21.333,9.387,21.333,21.333C349.867,211.803,348.16,213.51,345.6,213.51z M277.333,213.51
	c-2.56,0-4.267-1.707-4.267-4.267c0-6.827-5.973-12.8-12.8-12.8c-6.827,0-12.8,5.973-12.8,12.8c0,2.56-1.707,4.267-4.267,4.267
	s-4.267-1.707-4.267-4.267c0-11.947,9.387-21.333,21.333-21.333c11.947,0,21.333,9.387,21.333,21.333
	C281.6,211.803,279.893,213.51,277.333,213.51z M465.067,94.043c-18.773,0-34.987-11.093-42.667-27.307
	c-7.68,16.213-23.893,27.307-42.667,27.307c-18.773,0-34.987-11.093-42.667-27.307c-7.68,16.213-23.893,27.307-42.667,27.307
	c-18.773,0-34.987-11.093-42.667-27.307c-7.68,16.213-23.893,27.307-42.667,27.307S174.08,82.95,166.4,66.737
	c-7.68,16.213-23.893,27.307-42.667,27.307S88.747,82.95,81.067,66.737C73.387,82.95,57.173,94.043,38.4,94.043
	c-14.507,0-28.16-6.827-37.547-18.773C0,74.417,0,72.71,0,71.003L25.6,2.737c0.853-1.707,2.56-2.56,4.267-2.56H473.6
	c1.707,0,3.413,0.853,4.267,2.56l25.6,68.267c0.853,1.707,0,2.56-0.853,4.267C493.227,87.217,479.573,94.043,465.067,94.043z
	 M422.4,42.843c2.56,0,4.267,1.707,4.267,4.267c0,21.333,17.067,38.4,38.4,38.4c11.093,0,22.187-5.12,29.013-13.653L470.187,8.71
	H32.427L8.533,71.857c7.68,8.533,17.92,13.653,29.013,13.653c21.333,0,38.4-17.067,38.4-38.4c0-2.56,1.707-4.267,4.267-4.267
	c2.56,0,4.267,1.707,4.267,4.267c0,21.333,17.067,38.4,38.4,38.4s38.4-17.067,38.4-38.4c0-2.56,1.707-4.267,4.267-4.267
	c2.56,0,4.267,1.707,4.267,4.267c0,21.333,17.067,38.4,38.4,38.4s38.4-17.067,38.4-38.4c0-2.56,1.707-4.267,4.267-4.267
	s4.267,1.707,4.267,4.267c0,21.333,17.067,38.4,38.4,38.4s38.4-17.067,38.4-38.4c0-2.56,1.707-4.267,4.267-4.267
	s4.267,1.707,4.267,4.267c0,21.333,17.067,38.4,38.4,38.4c21.333,0,38.4-17.067,38.4-38.4C418.133,44.55,419.84,42.843,422.4,42.843
	z"/>
</svg>