<?xml version="1.0" encoding="iso-8859-1"?>
<!-- Uploaded to: SVG Repo, www.svgrepo.com, Generator: SVG Repo Mixer Tools -->
<svg height="800px" width="800px" version="1.1" id="Layer_1" xmlns="http://www.w3.org/2000/svg" xmlns:xlink="http://www.w3.org/1999/xlink" 
	 viewBox="0 0 503.467 503.467" xml:space="preserve">
<path style="fill:#7EE1E6;" d="M29.867,4.267H473.6c14.507,0,25.6,11.093,25.6,25.6V473.6c0,14.507-11.093,25.6-25.6,25.6H29.867
	c-14.507,0-25.6-11.093-25.6-25.6V29.867C4.267,15.36,15.36,4.267,29.867,4.267z"/>
<path style="fill:#51565F;" d="M473.6,503.467H157.867c-2.56,0-4.267-1.707-4.267-4.267v-68.267c0-2.56,1.707-4.267,4.267-4.267
	H345.6c2.56,0,4.267,1.707,4.267,4.267c0,2.56-1.707,4.267-4.267,4.267H162.133v59.733H473.6c11.947,0,21.333-9.387,21.333-21.333
	v-38.4H396.8c-2.56,0-4.267-1.707-4.267-4.267V281.6h-76.8v42.667H345.6c2.56,0,4.267,1.707,4.267,4.267
	c0,2.56-1.707,4.267-4.267,4.267h-34.133c-2.56,0-4.267-1.707-4.267-4.267v-51.2c0-2.56,1.707-4.267,4.267-4.267H396.8
	c2.56,0,4.267,1.707,4.267,4.267v149.333h93.867V384H448c-2.56,0-4.267-1.707-4.267-4.267c0-2.56,1.707-4.267,4.267-4.267h46.933
	V128h-42.667v46.933c0,2.56-1.707,4.267-4.267,4.267s-4.267-1.707-4.267-4.267V128h-29.867c-2.56,0-4.267-1.707-4.267-4.267V55.467
	c0-2.56,1.707-4.267,4.267-4.267H448c2.56,0,4.267,1.707,4.267,4.267c0,2.56-1.707,4.267-4.267,4.267h-29.867v59.733h76.8v-89.6
	c0-11.947-9.387-21.333-21.333-21.333H362.667c-2.56,0-4.267-1.707-4.267-4.267S360.107,0,362.667,0H473.6
	c16.213,0,29.867,13.653,29.867,29.867V473.6C503.467,489.813,489.813,503.467,473.6,503.467z M106.667,503.467h-76.8
	C13.653,503.467,0,489.813,0,473.6V29.867C0,13.653,13.653,0,29.867,0h281.6c2.56,0,4.267,1.707,4.267,4.267v166.4H396.8
	c2.56,0,4.267,1.707,4.267,4.267c0,2.56-1.707,4.267-4.267,4.267H157.867c-2.56,0-4.267-1.707-4.267-4.267V55.467
	c0-2.56,1.707-4.267,4.267-4.267h102.4c2.56,0,4.267,1.707,4.267,4.267v68.267c0,2.56-1.707,4.267-4.267,4.267h-51.2
	c-2.56,0-4.267-1.707-4.267-4.267v-17.067c0-2.56,1.707-4.267,4.267-4.267s4.267,1.707,4.267,4.267v12.8H256V59.733h-93.867v110.933
	H307.2V8.533H59.733V51.2h46.933c2.56,0,4.267,1.707,4.267,4.267v68.267c0,2.56-1.707,4.267-4.267,4.267s-4.267-1.707-4.267-4.267
	v-64H55.467c-2.56,0-4.267-1.707-4.267-4.267V8.533H29.867c-11.947,0-21.333,9.387-21.333,21.333v140.8H51.2v-64
	c0-2.56,1.707-4.267,4.267-4.267c2.56,0,4.267,1.707,4.267,4.267v64h46.933c2.56,0,4.267,1.707,4.267,4.267
	c0,2.56-1.707,4.267-4.267,4.267H8.533v93.867h98.133c2.56,0,4.267,1.707,4.267,4.267s-1.707,4.267-4.267,4.267H8.533v192
	c0,11.947,9.387,21.333,21.333,21.333H102.4V332.8H59.733v98.133c0,2.56-1.707,4.267-4.267,4.267c-2.56,0-4.267-1.707-4.267-4.267
	v-102.4c0-2.56,1.707-4.267,4.267-4.267H153.6V230.4H55.467c-2.56,0-4.267-1.707-4.267-4.267s1.707-4.267,4.267-4.267h102.4
	c2.56,0,4.267,1.707,4.267,4.267v102.4c0,2.56-1.707,4.267-4.267,4.267h-46.933v166.4
	C110.933,501.76,109.227,503.467,106.667,503.467z M345.6,384h-85.333c-2.56,0-4.267-1.707-4.267-4.267v-102.4
	c0-2.56,1.707-4.267,4.267-4.267s4.267,1.707,4.267,4.267v98.133H345.6c2.56,0,4.267,1.707,4.267,4.267
	C349.867,382.293,348.16,384,345.6,384z M209.067,384h-51.2c-2.56,0-4.267-1.707-4.267-4.267c0-2.56,1.707-4.267,4.267-4.267h51.2
	c2.56,0,4.267,1.707,4.267,4.267C213.333,382.293,211.627,384,209.067,384z M448,332.8c-2.56,0-4.267-1.707-4.267-4.267V230.4
	H260.267c-2.56,0-4.267-1.707-4.267-4.267s1.707-4.267,4.267-4.267H448c2.56,0,4.267,1.707,4.267,4.267v102.4
	C452.267,331.093,450.56,332.8,448,332.8z M209.067,332.8c-2.56,0-4.267-1.707-4.267-4.267v-102.4c0-2.56,1.707-4.267,4.267-4.267
	s4.267,1.707,4.267,4.267v102.4C213.333,331.093,211.627,332.8,209.067,332.8z M362.667,128c-2.56,0-4.267-1.707-4.267-4.267V55.467
	c0-2.56,1.707-4.267,4.267-4.267s4.267,1.707,4.267,4.267v68.267C366.933,126.293,365.227,128,362.667,128z"/>
</svg>