<?xml version="1.0" encoding="iso-8859-1"?>
<!-- Uploaded to: SVG Repo, www.svgrepo.com, Generator: SVG Repo Mixer Tools -->
<svg version="1.1" id="Layer_1" xmlns="http://www.w3.org/2000/svg" xmlns:xlink="http://www.w3.org/1999/xlink" 
	 viewBox="0 0 511.6 511.6" xml:space="preserve">
<g>
	<path style="fill:#CCD1D9;" d="M31.975,213.169c0,5.887-4.778,10.664-10.664,10.664s-10.648-4.777-10.648-10.664
		c0-5.886,4.762-10.655,10.648-10.655S31.975,207.283,31.975,213.169z"/>
	<path style="fill:#CCD1D9;" d="M500.937,213.169c0,5.887-4.763,10.664-10.647,10.664c-5.887,0-10.664-4.777-10.664-10.664
		c0-5.886,4.777-10.655,10.664-10.655C496.174,202.514,500.937,207.283,500.937,213.169z"/>
</g>
<path style="fill:#656D78;" d="M490.289,245.145c0,5.886-4.778,10.663-10.664,10.663H31.975c-5.886,0-10.664-4.777-10.664-10.663
	v-63.95c0-5.887,4.777-10.656,10.664-10.656h447.65c5.886,0,10.664,4.77,10.664,10.656L490.289,245.145L490.289,245.145z"/>
<polygon style="fill:#E6E9ED;" points="373.036,0 74.598,0 74.598,468.977 436.987,468.977 436.987,63.95 "/>
<path style="fill:#656D78;" d="M501.295,490.398c1.25,11.679-7.322,21.202-19.047,21.202H29.352
	c-11.725,0-20.296-9.523-19.047-21.202l27.432-256.034c1.249-11.654,11.866-21.194,23.591-21.194h388.947
	c11.725,0,22.342,9.54,23.59,21.194L501.295,490.398z"/>
<path style="fill:#434A54;" d="M120.515,250.765c4.075,1.077,9.056,2.537,14.832,4.224c28.197,8.243,75.285,22.014,120.453,22.123
	c45.167-0.109,92.256-13.88,120.452-22.123c5.777-1.687,10.758-3.146,14.832-4.224c19.922-5.27,54.131-10.546,84.872,3.092
	l-2.093-19.493c-1.248-11.654-11.865-21.194-23.59-21.194H61.327c-11.725,0-22.342,9.54-23.591,21.194l-2.092,19.493
	C66.385,240.219,100.593,245.495,120.515,250.765z"/>
<g>
	<path style="fill:#CCD1D9;" d="M106.588,351.725c5.886,0,10.664-4.762,10.664-10.647s-4.777-10.648-10.664-10.648
		c-5.886,0-10.647,4.763-10.647,10.648S100.702,351.725,106.588,351.725z"/>
	<path style="fill:#CCD1D9;" d="M149.227,351.725c5.886,0,10.664-4.762,10.664-10.647s-4.777-10.648-10.664-10.648
		c-5.886,0-10.664,4.763-10.664,10.648S143.341,351.725,149.227,351.725z"/>
	<path style="fill:#CCD1D9;" d="M191.865,351.725c5.886,0,10.648-4.762,10.648-10.647s-4.762-10.648-10.648-10.648
		s-10.664,4.763-10.664,10.648S185.979,351.725,191.865,351.725z"/>
	<path style="fill:#CCD1D9;" d="M234.488,351.725c5.886,0,10.664-4.762,10.664-10.647s-4.778-10.648-10.664-10.648
		s-10.648,4.763-10.648,10.648S228.602,351.725,234.488,351.725z"/>
	<path style="fill:#CCD1D9;" d="M277.127,351.725c5.886,0,10.664-4.762,10.664-10.647s-4.778-10.648-10.664-10.648
		c-5.887,0-10.664,4.763-10.664,10.648S271.24,351.725,277.127,351.725z"/>
	<path style="fill:#CCD1D9;" d="M319.766,351.725c5.886,0,10.647-4.762,10.647-10.647s-4.762-10.648-10.647-10.648
		c-5.887,0-10.664,4.763-10.664,10.648S313.879,351.725,319.766,351.725z"/>
	<path style="fill:#CCD1D9;" d="M362.389,351.725c5.886,0,10.663-4.762,10.663-10.647s-4.777-10.648-10.663-10.648
		c-5.887,0-10.648,4.763-10.648,10.648S356.502,351.725,362.389,351.725z"/>
	<path style="fill:#CCD1D9;" d="M405.028,351.725c5.886,0,10.663-4.762,10.663-10.647s-4.777-10.648-10.663-10.648
		c-5.887,0-10.664,4.763-10.664,10.648S399.141,351.725,405.028,351.725z"/>
	<path style="fill:#CCD1D9;" d="M106.588,394.348c-5.886,0-10.663,4.777-10.663,10.68c0,5.87,4.777,10.647,10.663,10.647
		s10.648-4.777,10.648-10.647C117.236,399.125,112.474,394.348,106.588,394.348z"/>
	<path style="fill:#CCD1D9;" d="M149.211,415.675c5.886,0,10.664-4.777,10.664-10.647c0-5.902-4.777-10.68-10.664-10.68
		c-5.886,0-10.648,4.777-10.648,10.68C138.563,410.898,143.325,415.675,149.211,415.675z"/>
	<path style="fill:#CCD1D9;" d="M191.85,394.348c-5.886,0-10.664,4.777-10.664,10.68c0,5.87,4.777,10.647,10.664,10.647
		s10.664-4.777,10.664-10.647C202.513,399.125,197.736,394.348,191.85,394.348z"/>
	<path style="fill:#CCD1D9;" d="M362.389,436.987H149.211l0,0c-5.87,0.016-10.648,4.777-10.648,10.664
		c0,5.87,4.778,10.647,10.648,10.647l0,0h213.178c5.886,0,10.647-4.777,10.647-10.647
		C373.036,441.748,368.275,436.987,362.389,436.987z"/>
	<path style="fill:#CCD1D9;" d="M234.488,394.348c-5.886,0-10.664,4.777-10.664,10.68c0,5.87,4.777,10.647,10.664,10.647
		c5.886,0,10.648-4.777,10.648-10.647C245.136,399.125,240.374,394.348,234.488,394.348z"/>
	<path style="fill:#CCD1D9;" d="M277.112,394.348c-5.887,0-10.648,4.777-10.648,10.68c0,5.87,4.762,10.647,10.648,10.647
		c5.886,0,10.664-4.777,10.664-10.647C287.776,399.125,282.997,394.348,277.112,394.348z"/>
	<path style="fill:#CCD1D9;" d="M319.75,394.348c-5.887,0-10.664,4.777-10.664,10.68c0,5.87,4.777,10.647,10.664,10.647
		c5.886,0,10.663-4.777,10.663-10.647C330.413,399.125,325.636,394.348,319.75,394.348z"/>
	<path style="fill:#CCD1D9;" d="M362.389,394.348c-5.887,0-10.664,4.777-10.664,10.68c0,5.87,4.777,10.647,10.664,10.647
		c5.886,0,10.647-4.777,10.647-10.647C373.036,399.125,368.275,394.348,362.389,394.348z"/>
	<path style="fill:#CCD1D9;" d="M405.012,394.348c-5.887,0-10.648,4.777-10.648,10.68c0,5.87,4.762,10.647,10.648,10.647
		c5.886,0,10.663-4.777,10.663-10.647C415.675,399.125,410.898,394.348,405.012,394.348z"/>
	<path style="fill:#CCD1D9;" d="M85.261,362.373c-5.886,0-10.648,4.777-10.648,10.679c0,5.87,4.762,10.648,10.648,10.648
		s10.664-4.778,10.664-10.648C95.925,367.151,91.147,362.373,85.261,362.373z"/>
	<path style="fill:#CCD1D9;" d="M127.9,362.373c-5.886,0-10.664,4.777-10.664,10.679c0,5.87,4.778,10.648,10.664,10.648
		s10.664-4.778,10.664-10.648C138.563,367.151,133.786,362.373,127.9,362.373z"/>
	<path style="fill:#CCD1D9;" d="M170.538,383.7c5.886,0,10.648-4.778,10.648-10.648c0-5.901-4.762-10.679-10.648-10.679
		s-10.664,4.777-10.664,10.679C159.875,378.922,164.653,383.7,170.538,383.7z"/>
	<path style="fill:#CCD1D9;" d="M213.161,383.7c5.886,0,10.664-4.778,10.664-10.648c0-5.901-4.777-10.679-10.664-10.679
		s-10.648,4.777-10.648,10.679C202.513,378.922,207.275,383.7,213.161,383.7z"/>
	<path style="fill:#CCD1D9;" d="M255.8,383.7c5.886,0,10.663-4.778,10.663-10.648c0-5.901-4.777-10.679-10.663-10.679
		c-5.886,0-10.664,4.777-10.664,10.679C245.136,378.922,249.914,383.7,255.8,383.7z"/>
	<path style="fill:#CCD1D9;" d="M298.439,383.7c5.886,0,10.647-4.778,10.647-10.648c0-5.901-4.762-10.679-10.647-10.679
		s-10.663,4.777-10.663,10.679C287.776,378.922,292.553,383.7,298.439,383.7z"/>
	<path style="fill:#CCD1D9;" d="M341.061,383.7c5.887,0,10.664-4.778,10.664-10.648c0-5.901-4.777-10.679-10.664-10.679
		c-5.885,0-10.647,4.777-10.647,10.679C330.413,378.922,335.176,383.7,341.061,383.7z"/>
	<path style="fill:#CCD1D9;" d="M383.699,362.373c-5.885,0-10.663,4.777-10.663,10.679c0,5.87,4.778,10.648,10.663,10.648
		c5.887,0,10.664-4.778,10.664-10.648C394.363,367.151,389.586,362.373,383.699,362.373z"/>
	<path style="fill:#CCD1D9;" d="M426.338,362.373c-5.886,0-10.663,4.777-10.663,10.679c0,5.87,4.777,10.648,10.663,10.648
		c5.887,0,10.648-4.778,10.648-10.648C436.987,367.151,432.225,362.373,426.338,362.373z"/>
</g>
<path style="fill:#AAB2BC;" d="M287.791,213.169H223.84h-10.664v10.664c0,5.886,4.777,10.655,10.664,10.655h63.951
	c5.885,0,10.647-4.77,10.647-10.655v-10.664H287.791z"/>
<g>
	<rect x="95.92" y="394.35" style="fill:#CCD1D9;" width="21.311" height="10.68"/>
	<rect x="95.92" y="330.43" style="fill:#CCD1D9;" width="21.311" height="10.648"/>
	<rect x="138.56" y="330.43" style="fill:#CCD1D9;" width="21.312" height="10.648"/>
	<rect x="181.19" y="330.43" style="fill:#CCD1D9;" width="21.327" height="10.648"/>
	<rect x="223.83" y="330.43" style="fill:#CCD1D9;" width="21.312" height="10.648"/>
	<rect x="266.46" y="330.43" style="fill:#CCD1D9;" width="21.312" height="10.648"/>
	<rect x="309.09" y="330.43" style="fill:#CCD1D9;" width="21.327" height="10.648"/>
	<rect x="351.73" y="330.43" style="fill:#CCD1D9;" width="21.312" height="10.648"/>
	<rect x="394.36" y="330.43" style="fill:#CCD1D9;" width="21.312" height="10.648"/>
	<rect x="138.56" y="394.35" style="fill:#CCD1D9;" width="21.312" height="10.68"/>
	<rect x="181.19" y="394.35" style="fill:#CCD1D9;" width="21.327" height="10.68"/>
	<rect x="223.83" y="394.35" style="fill:#CCD1D9;" width="21.312" height="10.68"/>
	<rect x="266.46" y="394.35" style="fill:#CCD1D9;" width="21.312" height="10.68"/>
	<rect x="309.09" y="394.35" style="fill:#CCD1D9;" width="21.327" height="10.68"/>
	<rect x="351.73" y="394.35" style="fill:#CCD1D9;" width="21.312" height="10.68"/>
	<rect x="394.36" y="394.35" style="fill:#CCD1D9;" width="21.312" height="10.68"/>
	<rect x="415.67" y="362.37" style="fill:#CCD1D9;" width="21.312" height="10.679"/>
	<rect x="373.04" y="362.37" style="fill:#CCD1D9;" width="21.327" height="10.679"/>
	<rect x="330.41" y="362.37" style="fill:#CCD1D9;" width="21.312" height="10.679"/>
	<rect x="287.78" y="362.37" style="fill:#CCD1D9;" width="21.311" height="10.679"/>
	<rect x="245.14" y="362.37" style="fill:#CCD1D9;" width="21.327" height="10.679"/>
	<rect x="202.51" y="362.37" style="fill:#CCD1D9;" width="21.312" height="10.679"/>
	<rect x="159.87" y="362.37" style="fill:#CCD1D9;" width="21.312" height="10.679"/>
	<rect x="117.24" y="362.37" style="fill:#CCD1D9;" width="21.327" height="10.679"/>
	<rect x="74.61" y="362.37" style="fill:#CCD1D9;" width="21.312" height="10.679"/>
	<rect x="138.56" y="436.99" style="fill:#CCD1D9;" width="234.47" height="10.664"/>
</g>
<g>
	<path style="fill:#F5F7FA;" d="M106.588,341.077c5.886,0,10.664-4.778,10.664-10.648c0-5.901-4.777-10.679-10.664-10.679
		c-5.886,0-10.647,4.777-10.647,10.679C95.941,336.299,100.702,341.077,106.588,341.077z"/>
	<path style="fill:#F5F7FA;" d="M149.227,341.077c5.886,0,10.664-4.778,10.664-10.648c0-5.901-4.777-10.679-10.664-10.679
		c-5.886,0-10.664,4.777-10.664,10.679C138.563,336.299,143.341,341.077,149.227,341.077z"/>
	<path style="fill:#F5F7FA;" d="M191.865,341.077c5.886,0,10.648-4.778,10.648-10.648c0-5.901-4.762-10.679-10.648-10.679
		s-10.664,4.777-10.664,10.679C181.202,336.299,185.979,341.077,191.865,341.077z"/>
	<path style="fill:#F5F7FA;" d="M234.488,341.077c5.886,0,10.664-4.778,10.664-10.648c0-5.901-4.778-10.679-10.664-10.679
		s-10.648,4.777-10.648,10.679C223.841,336.299,228.602,341.077,234.488,341.077z"/>
	<path style="fill:#F5F7FA;" d="M277.127,341.077c5.886,0,10.664-4.778,10.664-10.648c0-5.901-4.778-10.679-10.664-10.679
		c-5.887,0-10.664,4.777-10.664,10.679C266.463,336.299,271.24,341.077,277.127,341.077z"/>
	<path style="fill:#F5F7FA;" d="M319.766,341.077c5.886,0,10.647-4.778,10.647-10.648c0-5.901-4.762-10.679-10.647-10.679
		c-5.887,0-10.664,4.777-10.664,10.679C309.102,336.299,313.879,341.077,319.766,341.077z"/>
	<path style="fill:#F5F7FA;" d="M362.389,341.077c5.886,0,10.663-4.778,10.663-10.648c0-5.901-4.777-10.679-10.663-10.679
		c-5.887,0-10.648,4.777-10.648,10.679C351.74,336.299,356.502,341.077,362.389,341.077z"/>
	<path style="fill:#F5F7FA;" d="M405.028,341.077c5.886,0,10.663-4.778,10.663-10.648c0-5.901-4.777-10.679-10.663-10.679
		c-5.887,0-10.664,4.777-10.664,10.679C394.363,336.299,399.141,341.077,405.028,341.077z"/>
	<path style="fill:#F5F7FA;" d="M106.588,383.7c-5.886,0-10.663,4.777-10.663,10.647c0,5.901,4.777,10.68,10.663,10.68
		s10.648-4.778,10.648-10.68C117.236,388.478,112.474,383.7,106.588,383.7z"/>
	<path style="fill:#F5F7FA;" d="M149.211,405.028c5.886,0,10.664-4.778,10.664-10.68c0-5.87-4.777-10.647-10.664-10.647
		c-5.886,0-10.648,4.777-10.648,10.647C138.563,400.249,143.325,405.028,149.211,405.028z"/>
	<path style="fill:#F5F7FA;" d="M191.85,383.7c-5.886,0-10.664,4.777-10.664,10.647c0,5.901,4.777,10.68,10.664,10.68
		s10.664-4.778,10.664-10.68C202.513,388.478,197.736,383.7,191.85,383.7z"/>
	<path style="fill:#F5F7FA;" d="M362.389,426.323H149.211l0,0c-5.87,0.016-10.648,4.777-10.648,10.663s4.778,10.648,10.648,10.664
		l0,0h213.178c5.886,0,10.647-4.778,10.647-10.664S368.275,426.323,362.389,426.323z"/>
	<path style="fill:#F5F7FA;" d="M234.488,383.7c-5.886,0-10.664,4.777-10.664,10.647c0,5.901,4.777,10.68,10.664,10.68
		c5.886,0,10.648-4.778,10.648-10.68C245.136,388.478,240.374,383.7,234.488,383.7z"/>
	<path style="fill:#F5F7FA;" d="M277.112,383.7c-5.887,0-10.648,4.777-10.648,10.647c0,5.901,4.762,10.68,10.648,10.68
		c5.886,0,10.664-4.778,10.664-10.68C287.776,388.478,282.997,383.7,277.112,383.7z"/>
	<path style="fill:#F5F7FA;" d="M319.75,383.7c-5.887,0-10.664,4.777-10.664,10.647c0,5.901,4.777,10.68,10.664,10.68
		c5.886,0,10.663-4.778,10.663-10.68C330.413,388.478,325.636,383.7,319.75,383.7z"/>
	<path style="fill:#F5F7FA;" d="M362.389,383.7c-5.887,0-10.664,4.777-10.664,10.647c0,5.901,4.777,10.68,10.664,10.68
		c5.886,0,10.647-4.778,10.647-10.68C373.036,388.478,368.275,383.7,362.389,383.7z"/>
	<path style="fill:#F5F7FA;" d="M405.012,383.7c-5.887,0-10.648,4.777-10.648,10.647c0,5.901,4.762,10.68,10.648,10.68
		c5.886,0,10.663-4.778,10.663-10.68C415.675,388.478,410.898,383.7,405.012,383.7z"/>
	<path style="fill:#F5F7FA;" d="M85.261,351.725c-5.886,0-10.648,4.777-10.648,10.648c0,5.901,4.762,10.679,10.648,10.679
		s10.664-4.777,10.664-10.679C95.925,356.502,91.147,351.725,85.261,351.725z"/>
	<path style="fill:#F5F7FA;" d="M127.9,351.725c-5.886,0-10.664,4.777-10.664,10.648c0,5.901,4.778,10.679,10.664,10.679
		s10.664-4.777,10.664-10.679C138.563,356.502,133.786,351.725,127.9,351.725z"/>
	<path style="fill:#F5F7FA;" d="M170.538,373.052c5.886,0,10.648-4.777,10.648-10.679c0-5.871-4.762-10.648-10.648-10.648
		s-10.664,4.777-10.664,10.648C159.875,368.275,164.653,373.052,170.538,373.052z"/>
	<path style="fill:#F5F7FA;" d="M213.161,373.052c5.886,0,10.664-4.777,10.664-10.679c0-5.871-4.777-10.648-10.664-10.648
		s-10.648,4.777-10.648,10.648C202.513,368.275,207.275,373.052,213.161,373.052z"/>
	<path style="fill:#F5F7FA;" d="M255.8,373.052c5.886,0,10.663-4.777,10.663-10.679c0-5.871-4.777-10.648-10.663-10.648
		c-5.886,0-10.664,4.777-10.664,10.648C245.136,368.275,249.914,373.052,255.8,373.052z"/>
	<path style="fill:#F5F7FA;" d="M298.439,373.052c5.886,0,10.647-4.777,10.647-10.679c0-5.871-4.762-10.648-10.647-10.648
		s-10.663,4.777-10.663,10.648C287.776,368.275,292.553,373.052,298.439,373.052z"/>
	<path style="fill:#F5F7FA;" d="M341.061,373.052c5.887,0,10.664-4.777,10.664-10.679c0-5.871-4.777-10.648-10.664-10.648
		c-5.885,0-10.647,4.777-10.647,10.648C330.413,368.275,335.176,373.052,341.061,373.052z"/>
	<path style="fill:#F5F7FA;" d="M383.699,351.725c-5.885,0-10.663,4.777-10.663,10.648c0,5.901,4.778,10.679,10.663,10.679
		c5.887,0,10.664-4.777,10.664-10.679C394.363,356.502,389.586,351.725,383.699,351.725z"/>
	<path style="fill:#F5F7FA;" d="M426.338,351.725c-5.886,0-10.663,4.777-10.663,10.648c0,5.901,4.777,10.679,10.663,10.679
		c5.887,0,10.648-4.777,10.648-10.679C436.987,356.502,432.225,351.725,426.338,351.725z"/>
</g>
<polygon style="fill:#CCD1D9;" points="373.036,0 373.036,63.95 436.987,63.95 "/>
</svg>