<?xml version="1.0" encoding="iso-8859-1"?>
<!-- Uploaded to: SVG Repo, www.svgrepo.com, Generator: SVG Repo Mixer Tools -->
<svg version="1.1" id="Layer_1" xmlns="http://www.w3.org/2000/svg" xmlns:xlink="http://www.w3.org/1999/xlink" 
	 viewBox="0 0 512 512" xml:space="preserve">
<g>
	<path style="fill:#657694;" d="M143.661,352.001v42.663l31.423,42.67h178.063l31.424-42.67h31.427V287.999v-42.663v-21.333h-37.673
		h-85.329H143.661v42.668V352.001L143.661,352.001z M373.33,309.336H186.326v-42.67H373.33V309.336z"/>
	<rect x="186.328" y="266.665" style="fill:#ABB8B9;" width="187" height="42.67"/>
	<rect x="100.988" y="266.675" style="fill:#D12D4E;" width="42.669" height="85.331"/>
	<polygon style="fill:#ABB8B9;" points="100.993,352.001 100.993,266.67 55.832,245.335 10.667,224.003 10.667,394.668 	"/>
	<path style="fill:#657694;" d="M100.997,160h106.666c15.708,0,29.505-8.601,36.909-21.331c3.66-6.286,5.755-13.579,5.755-21.333
		c0-7.761-2.096-15.046-5.755-21.333c-7.404-12.73-21.202-21.337-36.909-21.337H100.997c-23.467,0-42.669,19.201-42.669,42.67
		S77.53,160,100.997,160z"/>
	<path style="fill:#ABB8B9;" d="M250.327,117.337c0,7.755-2.096,15.046-5.755,21.333h48.424h24.337h18.329v-21.333
		c0-11.736-9.601-21.333-21.332-21.333h-69.757C248.231,102.289,250.327,109.575,250.327,117.337z"/>
	<g>
		<path style="fill:#D12D4E;" d="M292.996,138.67v24.336v60.998h85.329v-60.998c0-13.38-10.95-24.336-24.331-24.336H335.66H292.996z
			"/>
		<rect x="415.997" y="245.341" style="fill:#D12D4E;" width="42.664" height="42.663"/>
	</g>
	<polygon style="fill:#ABB8B9;" points="458.663,245.335 458.663,287.999 458.663,309.331 501.333,309.331 501.333,224.003 
		458.663,224.003 	"/>
</g>
<g>
	<path style="fill:#000003;" d="M55.828,310.356c-5.891,0-10.667,4.777-10.667,10.667v0.256c0,5.891,4.777,10.667,10.667,10.667
		s10.667-4.777,10.667-10.667v-0.256C66.495,315.133,61.719,310.356,55.828,310.356z"/>
	<path style="fill:#000003;" d="M501.333,213.335h-42.67c-5.892,0-10.667,4.777-10.667,10.667v10.665h-21.329v-10.665
		c0-5.891-4.776-10.667-10.667-10.667h-27.006v-50.331c0-19.301-15.7-35.003-34.999-35.003h-7.666v-10.665
		c0-17.645-14.354-32-31.999-32h-64.027c-9.74-12.947-25.226-21.337-42.639-21.337H100.997c-29.409,0-53.336,23.927-53.336,53.337
		c0,29.406,23.927,53.331,53.336,53.331h106.666c17.409,0,32.895-8.387,42.634-21.331h32.031v63.998H143.661
		c-5.891,0-10.667,4.777-10.667,10.667v32h-29.609l-88.162-41.646c-3.305-1.56-7.179-1.321-10.265,0.635
		C1.871,216.948,0,220.348,0,224.003v170.666c0,3.655,1.871,7.054,4.958,9.011c1.736,1.099,3.718,1.657,5.709,1.657
		c1.552,0,3.108-0.338,4.556-1.022l88.162-41.646h29.608v31.996c0,2.276,0.729,4.493,2.078,6.326l31.423,42.67
		c2.011,2.731,5.198,4.342,8.589,4.342h178.063c3.391,0,6.579-1.612,8.589-4.342l28.227-38.328h26.035
		c5.892,0,10.667-4.776,10.667-10.667v-95.998h21.329v10.665c0,5.891,4.776,10.667,10.667,10.667h42.67
		c5.891,0,10.667-4.777,10.667-10.667v-85.329C512,218.111,507.223,213.335,501.333,213.335z M207.663,149.333H100.997
		c-17.645,0-32.001-14.353-32.001-31.996c0-17.646,14.356-32.002,32.001-32.002h106.666c11.623,0,21.815,6.232,27.42,15.528
		c0.157,0.307,0.329,0.604,0.513,0.893c2.584,4.615,4.064,9.928,4.064,15.582c0,5.676-1.492,11.009-4.096,15.635
		c-0.169,0.266-0.327,0.539-0.471,0.82C229.489,143.095,219.291,149.333,207.663,149.333z M259.921,106.672h54.407
		c5.88,0,10.664,4.784,10.664,10.665v10.665h-31.997h-33.074c0.703-3.447,1.073-7.014,1.073-10.665
		C260.994,113.685,260.624,110.118,259.921,106.672z M303.663,149.337h31.997h18.333c7.534,0,13.664,6.132,13.664,13.668v50.331
		h-63.994V149.337z M21.335,240.839l23.83,11.257v38.286c0,5.891,4.776,10.667,10.667,10.667S66.5,296.273,66.5,290.383v-28.209
		l23.826,11.255v71.813l-68.99,32.59V240.839z M111.66,341.333v-63.996h21.334v63.996H111.66z M405.331,383.997h-20.76
		c-3.39,0-6.58,1.612-8.59,4.342l-28.226,38.328H180.477l-26.148-35.507v-39.159V266.67v-32h138.667h85.329h27.006v10.665v42.663
		v95.998H405.331z M426.666,277.331v-21.328h21.329v21.328H426.666z M490.665,298.664H469.33v-10.665v-42.663V234.67h21.335V298.664
		z"/>
	<path style="fill:#000003;" d="M373.33,255.998H186.326c-5.892,0-10.667,4.776-10.667,10.667v42.67
		c0,5.892,4.776,10.667,10.667,10.667H373.33c5.891,0,10.667-4.776,10.667-10.667v-42.67
		C383.997,260.774,379.22,255.998,373.33,255.998z M362.662,298.668H196.993v-21.335h165.669V298.668z"/>
	<path style="fill:#000003;" d="M373.33,346.503h-45.047c-5.891,0-10.667,4.776-10.667,10.667c0,5.891,4.777,10.667,10.667,10.667
		h45.047c5.891,0,10.667-4.777,10.667-10.667C383.997,351.279,379.22,346.503,373.33,346.503z"/>
	<path style="fill:#000003;" d="M297.64,346.503h-0.256c-5.892,0-10.667,4.776-10.667,10.667c0,5.891,4.776,10.667,10.667,10.667
		h0.256c5.892,0,10.667-4.777,10.667-10.667C308.308,351.279,303.532,346.503,297.64,346.503z"/>
</g>
</svg>