<?xml version="1.0" encoding="utf-8"?>
<!-- Uploaded to: SVG Repo, www.svgrepo.com, Generator: SVG Repo Mixer Tools -->
<svg width="800px" height="800px" viewBox="0 0 1024 1024" class="icon"  version="1.1" xmlns="http://www.w3.org/2000/svg"><path d="M268.725 392.427l20.361 95.378 45.929-12.355-9.073-95.014zM205.869 350.609l18.774 39.934 170.804-24.321 1.112-54.612z" fill="#FCE3C3" /><path d="M172.723 510.108l195.962-41.848 27.318 123.14-201.464 39.403z" fill="#FCE3C3" /><path d="M362.368 439.789l343.391-73.567 39.463 184.304-342.574 70.826z" fill="#FCE3C3" /><path d="M768.149 373.933l29.79 48.658 9.133 60.632-9.133 50.353z" fill="#228E9D" /><path d="M784.059 554.659l-4.168-20.364c17.11-3.498 29.281-41.067 19.397-89.372-9.871-48.306-35.687-78.121-52.933-74.583l-4.154-20.364c31.642-6.448 65.719 33.401 77.451 90.779 11.737 57.386-3.897 107.417-35.593 113.904z" fill="#300604" /><path d="M849.454 254.975c0 8.637 7.002 15.639 15.639 15.639h14.983-14.983c-8.637 0-15.639 7.001-15.639 15.638v14.983-14.983c0-8.637-7.001-15.638-15.638-15.638h-14.984 14.984c8.637 0 15.638-7.002 15.638-15.639v-14.983 14.983z" fill="#ED8F27" /><path d="M855.606 301.236h-12.307v-14.983c0-5.232-4.255-9.487-9.483-9.487h-14.983v-12.307h14.983c5.228 0 9.483-4.254 9.483-9.482V239.99h12.307v14.987c0 5.228 4.255 9.482 9.487 9.482v12.307c-5.232 0-9.487 4.254-9.487 9.487v14.983z m24.47-24.47h-14.983v-12.307h14.983v12.307z" fill="#ED8F27" /><path d="M563.163 169.012c0 14.403 11.676 26.078 26.078 26.078h24.985-24.985c-14.402 0-26.078 11.675-26.078 26.078v24.985-24.985c0-14.403-11.675-26.078-26.078-26.078h-24.986 24.986c14.403 0 26.078-11.676 26.078-26.078v-24.985 24.985z" fill="#ED8F27" /><path d="M573.422 246.155H552.9V221.17c0-8.725-7.095-15.819-15.813-15.819h-24.985v-20.522h24.985c8.718 0 15.813-7.095 15.813-15.812v-24.991h20.522v24.991c0 8.718 7.095 15.812 15.819 15.812v20.522c-8.725 0-15.819 7.095-15.819 15.819v24.985z m40.803-40.805H589.24v-20.522h24.985v20.522z" fill="#ED8F27" /><path d="M358.518 882.655l-17.252-11.595L471.46 677.304l17.252 11.596zM490.262 689.508h20.783v185.358h-20.783zM642.782 882.655L512.865 689.312l17.252-11.596L660.034 871.06zM394.246 634.208l-41.797-204.344 415.102-84.9 41.797 204.344-415.102 84.9zM376.981 446.06l33.462 163.616 374.374-76.564-33.462-163.616-374.374 76.564z" fill="#300604" /><path d="M804.784 578.893l-45.994 9.408-53.034-259.272 45.994-9.408z" fill="#B12800" /><path d="M750.684 600.536l-57.189-279.644 66.355-13.578 57.195 279.643-66.361 13.579z m-32.657-263.447l48.854 238.916 25.634-5.244-48.86-238.915-25.628 5.243zM186.296 642.36l-28.3-138.354 221.569-45.315 28.299 138.354-221.568 45.315z m-3.768-122.157l19.965 97.626 180.841-36.98-19.965-97.626-180.841 36.98z" fill="#300604" /><path d="M198.66 650.998l-35.995 7.363-32.681-159.77 35.995-7.363z" fill="#B12800" /><path d="M154.573 670.613l-36.845-180.137 56.363-11.529 36.838 180.137-56.356 11.529zM142.26 506.672l28.509 139.409 15.629-3.193-28.503-139.409-15.635 3.193z" fill="#300604" /><path d="M260.044 393.959l20.703 95.826 21.517-4.167-20.702-95.826zM305.582 384.598l20.364-4.168 19.611 95.824-20.364 4.168z" fill="#300604" /><path d="M208.447 415.075l-14.843-72.566 199.263-40.756 14.844 72.567-199.264 40.755z m9.688-56.371l6.509 31.839 158.535-32.42-6.509-31.838-158.535 32.419z" fill="#300604" /><path d="M384.77 314.007l11.788-2.411 10.678 52.2-11.788 2.411z" fill="#300604" /><path d="M387.345 378.48l-14.843-72.559 32.156-6.569 14.844 72.559z" fill="#300604" /><path d="M216.536 402.824l-36.75 7.517-10.677-52.2 36.75-7.517z" fill="#B12800" /><path d="M171.697 422.591l-14.844-72.566 57.114-11.684 14.844 72.566-57.114 11.684z m9.687-56.37l6.509 31.838 16.386-3.349-6.508-31.838-16.387 3.349zM500.782 698.737c-21.46 0-40.166-15.283-44.469-36.331l-12.199-59.617 89.014-18.206 12.191 59.617c5.021 24.545-10.858 48.59-35.396 53.61-3.012 0.616-6.09 0.927-9.141 0.927z" fill="#300604" /><path d="M468.646 618.986l8.03 39.253c2.666 13.057 15.919 21.927 29.078 19.207 13.308-2.719 21.927-15.764 19.201-29.078l-8.024-39.253-48.285 9.871z" fill="#ED8F27" /><path d="M500.65 652.496m-11.325 0a11.325 11.325 0 1 0 22.65 0 11.325 11.325 0 1 0-22.65 0Z" fill="#300604" /><path d="M500.64 674.212c-10.263 0-19.207-7.3-21.263-17.36-2.409-11.725 5.182-23.226 16.913-25.634 11.603-2.334 23.28 5.433 25.634 16.934 1.164 5.67 0.047 11.468-3.146 16.312-3.2 4.844-8.092 8.146-13.782 9.31a22.119 22.119 0 0 1-4.356 0.438z" fill="#300604" /></svg>