<?xml version="1.0" encoding="utf-8"?>
<!-- Uploaded to: SVG Repo, www.svgrepo.com, Generator: SVG Repo Mixer Tools -->
<svg width="800px" height="800px" viewBox="0 0 1024 1024" class="icon"  version="1.1" xmlns="http://www.w3.org/2000/svg"><path d="M675.577 617.66s-0.651 64.298 12.57 87.497c13.221 23.199 50.411 32.183 50.411 32.183l27.191-23.16s24.551-30.092 23.705-44.808c-0.846-14.716-20.309-86.836-20.309-86.836l-93.568 35.124z" fill="#FCE3C3" /><path d="M732.514 737.642a56.99 56.99 0 0 1-18.124-2.943 56.885 56.885 0 0 1-38.813-53.977V617.66h12.087v63.061a44.811 44.811 0 0 0 30.575 42.52c9.206 3.089 19.346 3.089 28.552 0a44.814 44.814 0 0 0 30.577-42.52V617.66h12.087v63.061a56.884 56.884 0 0 1-38.816 53.977 56.95 56.95 0 0 1-18.125 2.944z" fill="#300604" /><path d="M732.515 741.642a60.817 60.817 0 0 1-19.398-3.151 60.88 60.88 0 0 1-41.539-57.769V613.66h20.087v67.062a40.817 40.817 0 0 0 27.848 38.728c8.383 2.812 17.62 2.812 26.007 0a40.817 40.817 0 0 0 27.849-38.728V613.66h20.087v67.062a60.878 60.878 0 0 1-41.542 57.769 60.81 60.81 0 0 1-19.399 3.151zM679.577 621.66v59.062a52.887 52.887 0 0 0 36.087 50.185 52.793 52.793 0 0 0 16.851 2.735c5.781 0 11.45-0.92 16.85-2.735a52.886 52.886 0 0 0 36.09-50.185V621.66h-4.087v59.062a48.811 48.811 0 0 1-33.303 46.312c-10.029 3.363-21.073 3.364-31.099 0a48.81 48.81 0 0 1-33.302-46.312V621.66h-4.087z" fill="#300604" /><path d="M738.558 831.071H624.124v-54.107l75.095-65.796 4.346 0.842 1.212 0.919c4.1 3.23 8.628 5.689 13.46 7.312a44.796 44.796 0 0 0 14.278 2.333h6.043v108.497z" fill="#300604" /><path d="M740.487 833.001H622.194V776.09l76.465-66.995 5.713 1.107 1.57 1.189c3.95 3.112 8.284 5.467 12.908 7.021a42.865 42.865 0 0 0 13.664 2.232h7.973v112.357z m-114.433-3.859h110.574V724.504h-4.113a46.675 46.675 0 0 1-14.893-2.434c-5.046-1.695-9.77-4.261-14.04-7.625l-0.825-0.626-2.977-0.576-73.727 64.597v51.302z" fill="#300604" /><path d="M840.907 831.071H726.471V722.574h6.043c4.861 0 9.667-0.785 14.278-2.333 4.835-1.623 9.364-4.084 13.458-7.31l1.153-0.909 4.346-0.842 2.286 1.938 72.872 63.846v54.107z" fill="#300604" /><path d="M842.837 833.001H724.541V720.645h7.974c4.656 0 9.253-0.751 13.664-2.232 4.623-1.552 8.956-3.906 12.878-6.996l1.52-1.199 5.715-1.106 2.992 2.536 73.554 64.443v56.91zM728.4 829.142h110.577V777.84l-72.214-63.271-1.556-1.318-2.978 0.577-0.784 0.618c-4.271 3.366-8.995 5.931-14.039 7.624a46.68 46.68 0 0 1-14.893 2.434H728.4v104.638z" fill="#300604" /><path d="M763.664 725.356a56.286 56.286 0 0 1-13.023 6.342c-3.351 1.126-12.868 1.932-18.159 2.417-5.274-0.484-14.741-1.291-18.092-2.417a56.267 56.267 0 0 1-13.023-6.342l-65.157 57.089v36.539h192.609v-36.539l-65.155-57.089z" fill="#228E9D" /><path d="M838.82 828.984H626.211v-51.072l74.288-65.091 6.359 4.178a46.414 46.414 0 0 0 10.712 5.218c2.237 0.702 11.336 1.531 14.762 1.843l0.152 0.015 0.185-0.018c3.434-0.312 12.555-1.14 14.805-1.844a46.385 46.385 0 0 0 10.699-5.214l6.359-4.178 74.288 65.091v51.072z m-192.609-20H818.82v-22.006l-56.373-49.393a66.09 66.09 0 0 1-8.627 3.594c-3.919 1.316-11.079 2.045-19.343 2.795l-1.996 0.183-1.964-0.18c-8.242-0.751-15.384-1.48-19.312-2.8a66.035 66.035 0 0 1-8.621-3.592l-56.373 49.393v22.006z" fill="#300604" /><path d="M672.517 642.352s-17.429-78.661 60.007-78.661 53.396 81.021 53.396 81.021-9.709-34.322-23.413-36.547c-15.098-2.453-34.377 47.522-89.99 34.187z" fill="#ED8F27" /><path d="M785.921 654.712h-0.064a10 10 0 0 1-9.559-7.278c-3.703-13.014-10.887-26.924-14.952-29.185-2.172 1.074-6.574 5.104-9.864 8.115-14.638 13.397-39.14 35.822-81.297 25.712a10.004 10.004 0 0 1-7.432-7.562c-0.366-1.656-8.741-40.875 12.713-67.603 12.368-15.409 31.565-23.222 57.058-23.222 25.008 0 43.46 7.734 54.845 22.987 20.635 27.646 8.658 69.127 8.139 70.879a10.002 10.002 0 0 1-9.587 7.157z m-104.543-20.811c27.747 4.134 43.64-10.429 56.601-22.291 8.743-8.003 16.29-14.916 26.132-13.317 5.616 0.913 10.468 4.41 14.576 9.104-1.039-6.668-3.249-13.29-7.385-18.808-7.409-9.887-20.456-14.899-38.778-14.899-19.127 0-33.077 5.296-41.461 15.741-11.115 13.847-10.739 34.265-9.685 44.47z" fill="#300604" /><path d="M458.789 364.734s-0.651 64.298 12.57 87.497c13.221 23.199 50.411 32.183 50.411 32.183l27.191-23.16s24.551-30.092 23.705-44.808-20.309-86.836-20.309-86.836l-93.568 35.124z" fill="#FCE3C3" /><path d="M515.727 484.715a56.99 56.99 0 0 1-18.124-2.943 56.885 56.885 0 0 1-38.813-53.977v-63.061h12.087v63.061a44.811 44.811 0 0 0 30.575 42.52c9.206 3.089 19.346 3.089 28.552 0a44.814 44.814 0 0 0 30.577-42.52v-63.061h12.087v63.061a56.884 56.884 0 0 1-38.815 53.977 56.993 56.993 0 0 1-18.126 2.943z" fill="#300604" /><path d="M515.727 488.715a60.817 60.817 0 0 1-19.398-3.151 60.88 60.88 0 0 1-41.539-57.769v-67.062h20.087v67.062a40.816 40.816 0 0 0 27.849 38.728c8.383 2.812 17.619 2.812 26.006 0a40.818 40.818 0 0 0 27.85-38.728v-67.062h20.087v67.062a60.88 60.88 0 0 1-60.942 60.92z m-52.938-119.982v59.062a52.887 52.887 0 0 0 36.087 50.185 52.793 52.793 0 0 0 16.851 2.735c5.782 0 11.451-0.92 16.85-2.734a52.888 52.888 0 0 0 36.091-50.186v-59.062h-4.087v59.062a48.811 48.811 0 0 1-33.304 46.312c-10.027 3.363-21.072 3.365-31.098 0a48.81 48.81 0 0 1-33.303-46.312v-59.062h-4.087z" fill="#300604" /><path d="M521.77 578.144l-102.347-4.835-12.087-49.272 75.095-65.796 4.346 0.842 1.212 0.919c4.1 3.23 8.628 5.689 13.46 7.312a44.796 44.796 0 0 0 14.278 2.333h6.043v108.497z" fill="#300604" /><path d="M523.7 580.168l-105.808-4.999-12.71-51.81 76.688-67.191 5.714 1.107 1.57 1.189c3.951 3.113 8.285 5.468 12.908 7.021a42.854 42.854 0 0 0 13.663 2.232h7.974v112.451z m-102.747-8.718l98.888 4.671V471.577h-4.114a46.66 46.66 0 0 1-14.892-2.434c-5.044-1.694-9.768-4.26-14.04-7.625l-0.825-0.625-2.978-0.577-73.503 64.4 11.464 46.734z" fill="#300604" /><path d="M609.647 567.09l-99.964 11.054V469.648h6.043c4.861 0 9.667-0.785 14.278-2.333 4.836-1.623 9.364-4.084 13.458-7.31l1.153-0.909 4.346-0.842 2.286 1.938 72.872 63.846-14.472 43.052z" fill="#300604" /><path d="M507.754 580.3V467.718h7.973c4.656 0 9.253-0.751 13.664-2.232 4.623-1.552 8.955-3.905 12.878-6.996l1.52-1.199 5.716-1.106 2.991 2.536 73.863 64.714-15.274 45.438L507.754 580.3z m3.859-108.723v104.412l96.598-10.682 13.669-40.665-71.904-63-1.556-1.318-2.978 0.577-0.784 0.618c-4.272 3.367-8.996 5.932-14.039 7.624a46.68 46.68 0 0 1-14.893 2.434h-4.113z" fill="#300604" /><path d="M546.876 472.43a56.286 56.286 0 0 1-13.023 6.342c-3.351 1.126-12.868 1.932-18.159 2.417-5.274-0.484-14.741-1.291-18.092-2.417a56.267 56.267 0 0 1-13.023-6.342l-65.157 57.089 10.06 28.106 83.871 8.433h4.674L601 557.624l11.032-28.106-65.156-57.088z" fill="#228E9D" /><path d="M518.536 576.058l-6.183-0.05-90.156-9.066-14.482-40.46 75.998-66.587 6.358 4.178a46.458 46.458 0 0 0 10.712 5.219c2.235 0.701 11.333 1.529 14.758 1.842l0.155 0.014 0.185-0.017c3.434-0.312 12.557-1.14 14.806-1.844a46.398 46.398 0 0 0 10.698-5.214l6.359-4.178 76.165 66.734-15.829 40.327-89.544 9.102z m-4.68-20h3.666l76.397-7.766 6.235-15.885-54.496-47.748a66.058 66.058 0 0 1-8.625 3.593c-3.921 1.317-11.081 2.046-19.345 2.796l-1.996 0.183-1.968-0.181c-8.24-0.75-15.381-1.479-19.309-2.799a65.964 65.964 0 0 1-8.62-3.592l-54.666 47.896 5.639 15.751 77.088 7.752z" fill="#300604" /><path d="M455.729 389.425s-17.429-78.661 60.007-78.661 53.396 81.021 53.396 81.021-9.709-34.322-23.413-36.548c-15.098-2.452-34.377 47.523-89.99 34.188z" fill="#ED8F27" /><path d="M569.133 401.785h-0.064a10 10 0 0 1-9.559-7.278c-3.703-13.013-10.886-26.924-14.951-29.185-2.173 1.074-6.574 5.104-9.864 8.115-14.639 13.396-39.141 35.819-81.298 25.712a10.004 10.004 0 0 1-7.432-7.562c-0.366-1.656-8.741-40.874 12.713-67.603 12.368-15.408 31.565-23.222 57.059-23.222 25.007 0 43.459 7.734 54.844 22.987 20.635 27.646 8.658 69.127 8.139 70.879a10.002 10.002 0 0 1-9.587 7.157z m-104.564-20.813c27.753 4.142 43.657-10.423 56.622-22.288 8.743-8.003 16.295-14.916 26.132-13.317 5.616 0.913 10.467 4.409 14.575 9.104-1.039-6.669-3.249-13.29-7.385-18.808-7.409-9.887-20.456-14.899-38.777-14.899-19.087 0-33.019 5.273-41.407 15.674-11.246 13.942-10.843 34.327-9.76 44.534z" fill="#300604" /><path d="M216.949 617.66s-0.651 64.298 12.57 87.497c13.221 23.199 50.411 32.183 50.411 32.183l27.191-23.16s24.551-30.092 23.705-44.808c-0.846-14.716-20.309-86.836-20.309-86.836l-93.568 35.124z" fill="#FCE3C3" /><path d="M273.887 737.642a56.99 56.99 0 0 1-18.124-2.943 56.885 56.885 0 0 1-38.813-53.977V617.66h12.087v63.061a44.811 44.811 0 0 0 30.575 42.52c9.206 3.089 19.345 3.089 28.552 0a44.814 44.814 0 0 0 30.577-42.52V617.66h12.087v63.061a56.884 56.884 0 0 1-38.815 53.977 56.966 56.966 0 0 1-18.126 2.944z" fill="#300604" /><path d="M273.887 741.642a60.817 60.817 0 0 1-19.398-3.151 60.88 60.88 0 0 1-41.539-57.769V613.66h20.087v67.062a40.817 40.817 0 0 0 27.848 38.728c8.383 2.812 17.62 2.812 26.007 0a40.818 40.818 0 0 0 27.85-38.728V613.66h20.086v67.062a60.878 60.878 0 0 1-41.542 57.769 60.81 60.81 0 0 1-19.399 3.151zM220.949 621.66v59.062a52.887 52.887 0 0 0 36.087 50.185 52.793 52.793 0 0 0 16.851 2.735c5.781 0 11.45-0.92 16.85-2.735a52.886 52.886 0 0 0 36.09-50.185V621.66h-4.086v59.062a48.811 48.811 0 0 1-33.304 46.312c-10.028 3.363-21.072 3.364-31.099 0a48.81 48.81 0 0 1-33.302-46.312V621.66h-4.087z" fill="#300604" /><path d="M279.93 831.071H165.496v-54.107l75.095-65.796 4.346 0.842 1.212 0.919c4.1 3.23 8.628 5.689 13.46 7.312a44.796 44.796 0 0 0 14.278 2.333h6.043v108.497z" fill="#300604" /><path d="M281.859 833.001H163.566V776.09l76.465-66.995 5.715 1.107 1.569 1.19c3.949 3.111 8.283 5.466 12.907 7.02a42.865 42.865 0 0 0 13.664 2.232h7.973v112.357z m-114.433-3.859H278V724.504h-4.113a46.675 46.675 0 0 1-14.893-2.434c-5.046-1.695-9.77-4.261-14.04-7.625l-0.825-0.626-2.977-0.576-73.727 64.597v51.302z" fill="#300604" /><path d="M382.279 831.071H267.843V722.574h6.043c4.861 0 9.667-0.785 14.278-2.333 4.835-1.623 9.364-4.084 13.458-7.31l1.153-0.909 4.346-0.842 2.286 1.938 72.872 63.846v54.107z" fill="#300604" /><path d="M384.209 833.001H265.913V720.645h7.974c4.656 0 9.253-0.751 13.664-2.232 4.623-1.552 8.956-3.906 12.878-6.996l1.52-1.199 5.715-1.106 2.992 2.536 73.554 64.443v56.91z m-114.437-3.859H380.35V777.84l-72.214-63.271-1.556-1.318-2.978 0.577-0.784 0.618c-4.271 3.366-8.995 5.931-14.039 7.624a46.68 46.68 0 0 1-14.893 2.434h-4.114v104.638z" fill="#300604" /><path d="M305.036 725.356a56.286 56.286 0 0 1-13.023 6.342c-3.351 1.126-12.868 1.932-18.159 2.417-5.274-0.484-14.741-1.291-18.092-2.417a56.267 56.267 0 0 1-13.023-6.342l-65.157 57.089v36.539h192.609v-36.539l-65.155-57.089z" fill="#228E9D" /><path d="M380.192 828.984H167.583v-51.072l74.288-65.091 6.359 4.178a46.414 46.414 0 0 0 10.712 5.218c2.237 0.702 11.336 1.531 14.762 1.843l0.152 0.015 0.185-0.018c3.434-0.312 12.555-1.14 14.805-1.844a46.385 46.385 0 0 0 10.699-5.214l6.359-4.178 74.288 65.091v51.072z m-192.609-20h172.609v-22.006l-56.373-49.393a66.09 66.09 0 0 1-8.627 3.594c-3.919 1.316-11.079 2.045-19.343 2.795l-1.996 0.183-1.964-0.18c-8.242-0.751-15.384-1.48-19.312-2.8a66.035 66.035 0 0 1-8.621-3.592l-56.373 49.393v22.006z" fill="#300604" /><path d="M213.889 642.352s-17.429-78.661 60.007-78.661 53.396 81.021 53.396 81.021-9.709-34.322-23.413-36.547c-15.098-2.453-34.377 47.522-89.99 34.187z" fill="#ED8F27" /><path d="M327.293 654.712h-0.064a10 10 0 0 1-9.559-7.278c-3.703-13.014-10.887-26.925-14.952-29.185-2.172 1.074-6.574 5.104-9.864 8.115-14.639 13.397-39.137 35.822-81.297 25.712a10.004 10.004 0 0 1-7.432-7.562c-0.366-1.656-8.741-40.875 12.713-67.603 12.368-15.409 31.565-23.222 57.058-23.222 25.008 0 43.46 7.734 54.845 22.987 20.635 27.646 8.658 69.127 8.139 70.879a10.002 10.002 0 0 1-9.587 7.157zM222.75 633.901c27.739 4.134 43.64-10.429 56.601-22.291 8.743-8.003 16.294-14.916 26.132-13.317 5.616 0.913 10.468 4.41 14.576 9.104-1.039-6.668-3.249-13.29-7.385-18.808-7.409-9.887-20.456-14.899-38.778-14.899-19.127 0-33.077 5.296-41.461 15.741-11.115 13.847-10.739 34.265-9.685 44.47z" fill="#300604" /><path d="M513.232 228.978c-100.956 0-182.796 81.841-182.796 182.796S412.277 594.57 513.232 594.57s182.796-81.841 182.796-182.796-81.84-182.796-182.796-182.796z m1.72 338.112c-83.901 0-151.916-68.015-151.916-151.916s68.015-151.916 151.916-151.916 151.916 68.015 151.916 151.916S598.853 567.09 514.952 567.09z" fill="#B12800" /><path d="M513.067 573.309c-88.495 0-160.487-71.995-160.487-160.49 0-88.496 71.992-160.49 160.487-160.49 88.496 0 160.493 71.995 160.493 160.49 0 88.496-71.997 160.49-160.493 160.49z m0-304.169c-79.226 0-143.677 64.454-143.677 143.68 0 79.225 64.451 143.679 143.677 143.679s143.682-64.454 143.682-143.679c0-79.226-64.456-143.68-143.682-143.68z" fill="#300604" /><path d="M546.026 642.006h-65.917v-45.741h16.81v28.931h32.297v-28.931h16.81z" fill="#300604" /><path d="M488.632 879.053h48.874c16.052 0 28.689-13.697 27.399-29.697l-17.391-215.753h-68.891l-17.39 215.753c-1.291 15.999 11.346 29.697 27.399 29.697z" fill="#B12800" /><path d="M537.506 887.457h-48.871a35.995 35.995 0 0 1-26.381-11.552 36.01 36.01 0 0 1-9.402-27.224l18.015-223.485h84.403l18.014 223.483a35.98 35.98 0 0 1-9.395 27.221 35.989 35.989 0 0 1-26.383 11.557z m-51.132-245.451L469.608 850.03c-0.433 5.371 1.346 10.512 5.001 14.474 3.656 3.962 8.635 6.143 14.025 6.143h48.871c5.391 0 10.37-2.184 14.025-6.145 3.655-3.959 5.428-9.1 4.996-14.471L539.76 642.006h-53.386z" fill="#300604" /><path d="M537.506 889.957h-48.871a38.506 38.506 0 0 1-28.219-12.356 38.516 38.516 0 0 1-10.057-29.119l18.2-225.785h89.016l18.2 225.781a38.493 38.493 0 0 1-10.05 29.118 38.496 38.496 0 0 1-28.219 12.361z m-64.333-262.261l-17.829 221.187a33.5 33.5 0 0 0 8.746 25.327 33.493 33.493 0 0 0 24.545 10.747h48.871a33.478 33.478 0 0 0 24.544-10.752 33.472 33.472 0 0 0 8.741-25.325l-17.829-221.184h-79.789z m64.333 245.45h-48.871c-6.096 0-11.729-2.467-15.863-6.947-4.137-4.484-6.146-10.298-5.656-16.37l16.952-210.323h58l16.952 210.323c0.488 6.079-1.519 11.892-5.651 16.368-4.138 4.482-9.77 6.949-15.863 6.949z m-48.825-228.64L472.1 850.231c-0.376 4.664 1.168 9.131 4.347 12.577 3.176 3.442 7.505 5.338 12.188 5.338h48.871c4.681 0 9.01-1.896 12.188-5.34 3.175-3.439 4.717-7.906 4.341-12.576l-16.581-205.725h-48.773z" fill="#300604" /><path d="M522.206 860.413h-17.702v-16.81h17.702a7.901 7.901 0 0 0 5.866-2.569 7.905 7.905 0 0 0 2.09-6.061l-9.483-116.652 16.756-1.363 9.483 116.655a24.862 24.862 0 0 1-6.49 18.816 24.854 24.854 0 0 1-18.222 7.984z" fill="#300604" /><path d="M513.067 604.67c-105.788 0-191.854-86.063-191.854-191.851s86.066-191.854 191.854-191.854 191.854 86.066 191.854 191.854S618.855 604.67 513.067 604.67z m0-366.894c-96.518 0-175.043 78.525-175.043 175.043s78.525 175.04 175.043 175.04 175.043-78.523 175.043-175.04c0.001-96.518-78.525-175.043-175.043-175.043z" fill="#300604" /><path d="M513.067 607.17c-107.167 0-194.354-87.186-194.354-194.351 0-107.167 87.187-194.354 194.354-194.354s194.354 87.187 194.354 194.354c0 107.165-87.187 194.351-194.354 194.351z m0-383.704c-104.41 0-189.354 84.943-189.354 189.354 0 104.408 84.943 189.351 189.354 189.351s189.354-84.942 189.354-189.351c0-104.411-84.943-189.354-189.354-189.354z m0 366.894c-97.897 0-177.543-79.645-177.543-177.541 0-97.897 79.646-177.543 177.543-177.543S690.61 314.922 690.61 412.819 610.965 590.36 513.067 590.36z m0-350.084c-95.141 0-172.543 77.402-172.543 172.543 0 95.14 77.402 172.541 172.543 172.541S685.61 507.959 685.61 412.819s-77.402-172.543-172.543-172.543z" fill="#300604" /><path d="M501.074 134.485h20.517v53.126h-20.517z" fill="#ED8F27" /><path d="M526.663 192.684h-30.662v-63.271h30.662v63.271z m-20.517-10.145h10.373v-42.981h-10.373v42.981z" fill="#ED8F27" /><path d="M348.264 251.544l-14.508 14.507-37.565-37.565 14.507-14.508z" fill="#ED8F27" /><path d="M333.752 273.225l-44.739-44.738 21.681-21.681 44.739 44.738-21.681 21.681z m-30.394-44.739l30.394 30.393 7.335-7.335-30.394-30.393-7.335 7.335z" fill="#ED8F27" /><path d="M217.777 419.316h53.126v20.517h-53.126z" fill="#ED8F27" /><path d="M275.976 444.905h-63.271v-30.662h63.271v30.662z m-53.126-10.144h42.981v-10.373H222.85v10.373z" fill="#ED8F27" /><path d="M753.295 417.781h53.126v20.517h-53.126z" fill="#ED8F27" /><path d="M811.494 443.371h-63.271v-30.662h63.271v30.662z m-53.127-10.144h42.982v-10.373h-42.982v10.373z" fill="#ED8F27" /><path d="M689.365 264.973l-14.508-14.507 37.566-37.566 14.507 14.508z" fill="#ED8F27" /><path d="M689.362 272.141l-21.681-21.681 44.738-44.739 21.681 21.681-44.738 44.739z m-7.335-21.681l7.335 7.335 30.393-30.394-7.335-7.335-30.393 30.394z" fill="#ED8F27" /><path d="M638.91 416.26h-19.955c0-64.91-52.805-117.719-117.719-117.719v-19.955c75.91 0 137.674 61.76 137.674 137.674zM563.81 538.919l-9.081-17.766c20.93-10.699 38.04-27.221 49.473-47.78l17.435 9.698c-13.362 24.031-33.356 43.343-57.827 55.848z" fill="#300604" /></svg>